<?xml version="1.0" encoding="UTF-8"?>
<svg version="1.1" xmlns="http://www.w3.org/2000/svg" width="155" height="188">
<path d="M0 0 C1.28197266 0.00193359 2.56394531 0.00386719 3.88476562 0.00585938 C4.5527417 0.01206299 5.22071777 0.0182666 5.90893555 0.0246582 C7.90341357 0.04262647 9.89801941 0.04393593 11.89257812 0.04492188 C20.1380855 0.08189724 28.29360333 0.47201725 36.50390625 1.23046875 C35.9294336 4.67496176 34.86563651 6.19200374 32.29296875 8.515625 C31.63039063 9.12341797 30.9678125 9.73121094 30.28515625 10.35742188 C29.57359375 10.99615234 28.86203125 11.63488281 28.12890625 12.29296875 C26.66135297 13.63648506 25.19521321 14.98154698 23.73046875 16.328125 C23.00891602 16.9895752 22.28736328 17.65102539 21.54394531 18.33251953 C18.78836616 20.89617107 16.14477638 23.54868373 13.50390625 26.23046875 C9.87453829 29.90343272 6.15619487 33.37434781 2.23046875 36.7265625 C-0.13324374 38.78545234 -2.31459109 40.98079413 -4.49609375 43.23046875 C-5.98109375 42.73546875 -5.98109375 42.73546875 -7.49609375 42.23046875 C-9.38173109 46.37887089 -10.49609375 50.6334016 -10.49609375 55.23046875 C-9.50609375 55.56046875 -8.51609375 55.89046875 -7.49609375 56.23046875 C-7.49609375 77.02046875 -7.49609375 97.81046875 -7.49609375 119.23046875 C-8.48609375 119.72546875 -8.48609375 119.72546875 -9.49609375 120.23046875 C-12.81857529 118.94445392 -15.91721403 117.15526114 -19.05859375 115.48046875 C-19.94740234 115.02414063 -20.83621094 114.5678125 -21.75195312 114.09765625 C-22.59693359 113.65164062 -23.44191406 113.205625 -24.3125 112.74609375 C-25.09052979 112.33649414 -25.86855957 111.92689453 -26.67016602 111.50488281 C-28.49609375 110.23046875 -28.49609375 110.23046875 -29.49609375 107.23046875 C-28.76452049 104.60541175 -27.97368189 102.10187056 -27.05859375 99.54296875 C-26.81560547 98.84107422 -26.57261719 98.13917969 -26.32226562 97.41601562 C-25.72159935 95.68468343 -25.10989656 93.95718738 -24.49609375 92.23046875 C-24.82609375 92.89046875 -25.15609375 93.55046875 -25.49609375 94.23046875 C-29.5773856 92.61353689 -32.30211626 89.68766423 -35.30859375 86.60546875 C-35.84556885 86.06204834 -36.38254395 85.51862793 -36.93579102 84.95874023 C-40.27295536 81.55700189 -43.43779079 78.05338551 -46.5234375 74.421875 C-49.23514238 71.40946621 -52.11518898 68.58019578 -54.99609375 65.73046875 C-68.16442543 52.66145706 -68.16442543 52.66145706 -68.98046875 49.140625 C-69.37832904 46.83322393 -69.37832904 46.83322393 -72.49609375 45.23046875 C-76.17628508 35.86078622 -73.27496593 22.161089 -72.49609375 12.23046875 C-68.92091907 11.39290071 -66.06503287 11.30130569 -62.49609375 12.23046875 C-58.76679534 15.33221626 -55.80911789 18.86015096 -52.7890625 22.63964844 C-50.91366443 24.94706797 -48.88854768 27.10979539 -46.87109375 29.29296875 C-44.626417 31.75295123 -43.56191945 33.03299165 -42.49609375 36.23046875 C-39.804281 33.56812675 -37.11847228 30.89980208 -34.43359375 28.23046875 C-33.3053418 27.11478516 -33.3053418 27.11478516 -32.15429688 25.9765625 C-27.38655604 21.22946123 -22.85474489 16.35497195 -18.49609375 11.23046875 C-17.10334359 9.60282546 -15.7081702 7.977246 -14.30859375 6.35546875 C-13.67566406 5.61554687 -13.04273438 4.875625 -12.390625 4.11328125 C-8.54486271 0.29130718 -5.34009551 -0.0190278 0 0 Z M-7.49609375 9.23046875 C-7.49609375 11.54046875 -7.49609375 13.85046875 -7.49609375 16.23046875 C-7.16609375 16.23046875 -6.83609375 16.23046875 -6.49609375 16.23046875 C-6.49609375 13.92046875 -6.49609375 11.61046875 -6.49609375 9.23046875 C-6.82609375 9.23046875 -7.15609375 9.23046875 -7.49609375 9.23046875 Z M-8.49609375 17.23046875 C-8.49609375 22.51046875 -8.49609375 27.79046875 -8.49609375 33.23046875 C-7.83609375 33.23046875 -7.17609375 33.23046875 -6.49609375 33.23046875 C-6.82609375 27.95046875 -7.15609375 22.67046875 -7.49609375 17.23046875 C-7.82609375 17.23046875 -8.15609375 17.23046875 -8.49609375 17.23046875 Z M-45.49609375 38.23046875 C-46.48609375 39.71546875 -46.48609375 39.71546875 -47.49609375 41.23046875 C-46.50609375 40.90046875 -45.51609375 40.57046875 -44.49609375 40.23046875 C-44.82609375 39.57046875 -45.15609375 38.91046875 -45.49609375 38.23046875 Z M-50.55859375 43.10546875 C-52.72067837 44.99750749 -52.72067837 44.99750749 -52.49609375 47.23046875 C-50.84609375 47.23046875 -49.19609375 47.23046875 -47.49609375 47.23046875 C-47.49609375 45.25046875 -47.49609375 43.27046875 -47.49609375 41.23046875 C-48.83733505 41.11835662 -48.83733505 41.11835662 -50.55859375 43.10546875 Z M-44.49609375 46.23046875 C-44.49609375 46.56046875 -44.49609375 46.89046875 -44.49609375 47.23046875 C-42.18609375 47.23046875 -39.87609375 47.23046875 -37.49609375 47.23046875 C-37.49609375 46.90046875 -37.49609375 46.57046875 -37.49609375 46.23046875 C-39.80609375 46.23046875 -42.11609375 46.23046875 -44.49609375 46.23046875 Z M-12.49609375 57.23046875 C-11.49609375 59.23046875 -11.49609375 59.23046875 -11.49609375 59.23046875 Z M-13.49609375 59.23046875 C-14.15609375 62.20046875 -14.81609375 65.17046875 -15.49609375 68.23046875 C-12.73386097 65.46823597 -12.91753084 63.02340258 -12.49609375 59.23046875 C-12.82609375 59.23046875 -13.15609375 59.23046875 -13.49609375 59.23046875 Z M-16.49609375 68.23046875 C-17.52837237 70.83061402 -18.54714527 73.43473244 -19.55859375 76.04296875 C-19.85314453 76.78095703 -20.14769531 77.51894531 -20.45117188 78.27929688 C-22.26583935 82.67431176 -22.26583935 82.67431176 -21.49609375 87.23046875 C-20.46381513 84.63032348 -19.44504223 82.02620506 -18.43359375 79.41796875 C-18.13904297 78.67998047 -17.84449219 77.94199219 -17.54101562 77.18164062 C-15.72634815 72.78662574 -15.72634815 72.78662574 -16.49609375 68.23046875 Z " fill="#ECD08E" transform="translate(101.49609375,38.76953125)"/>
<path d="M0 0 C1.74023438 0.00966797 1.74023438 0.00966797 3.515625 0.01953125 C4.7221875 0.03628906 5.92875 0.05304687 7.171875 0.0703125 C9.00492188 0.08384766 9.00492188 0.08384766 10.875 0.09765625 C13.89082282 0.12121737 16.90624992 0.15411544 19.921875 0.1953125 C19.921875 0.8553125 19.921875 1.5153125 19.921875 2.1953125 C11.671875 2.1953125 3.421875 2.1953125 -5.078125 2.1953125 C-5.078125 3.8453125 -5.078125 5.4953125 -5.078125 7.1953125 C-5.738125 7.5253125 -6.398125 7.8553125 -7.078125 8.1953125 C-7.078125 17.4353125 -7.078125 26.6753125 -7.078125 36.1953125 C-6.088125 36.6903125 -6.088125 36.6903125 -5.078125 37.1953125 C-4.748125 38.1853125 -4.418125 39.1753125 -4.078125 40.1953125 C-2.758125 39.5353125 -1.438125 38.8753125 -0.078125 38.1953125 C-2.058125 40.6703125 -2.058125 40.6703125 -4.078125 43.1953125 C-5.068125 42.8653125 -6.058125 42.5353125 -7.078125 42.1953125 C-8.44549012 45.20351577 -9.1372505 47.63875378 -9.578125 50.9453125 C-9.825625 52.5540625 -9.825625 52.5540625 -10.078125 54.1953125 C-11.068125 54.6903125 -11.068125 54.6903125 -12.078125 55.1953125 C-11.748125 52.5553125 -11.418125 49.9153125 -11.078125 47.1953125 C-22.958125 46.8653125 -34.838125 46.5353125 -47.078125 46.1953125 C-47.573125 44.7103125 -47.573125 44.7103125 -48.078125 43.1953125 C-46.75 41.22265625 -46.75 41.22265625 -44.828125 39.1328125 C-44.20421875 38.44058594 -43.5803125 37.74835938 -42.9375 37.03515625 C-41.078125 35.1953125 -41.078125 35.1953125 -38.078125 33.1953125 C-37.748125 34.1853125 -37.418125 35.1753125 -37.078125 36.1953125 C-38.563125 36.6903125 -38.563125 36.6903125 -40.078125 37.1953125 C-40.078125 37.8553125 -40.078125 38.5153125 -40.078125 39.1953125 C-41.398125 40.5153125 -42.718125 41.8353125 -44.078125 43.1953125 C-32.528125 43.5253125 -20.978125 43.8553125 -9.078125 44.1953125 C-9.408125 31.6553125 -9.738125 19.1153125 -10.078125 6.1953125 C-11.068125 6.1953125 -12.058125 6.1953125 -13.078125 6.1953125 C-9.49368828 0.81865741 -6.35467688 -0.06230075 0 0 Z " fill="#DCC197" transform="translate(101.078125,38.8046875)"/>
<path d="M0 0 C2.49310643 3.73965964 2.0603261 5.29070641 1.625 9.6875 C1.51414062 10.86699219 1.40328125 12.04648438 1.2890625 13.26171875 C1.19367187 14.16535156 1.09828125 15.06898437 1 16 C12.30639487 16.53573041 12.30639487 16.53573041 22.8203125 13.375 C24.47259479 11.66049787 25.8117254 10.05931752 27 8 C26.01 6.02 25.02 4.04 24 2 C25.9375 2.6875 25.9375 2.6875 28 4 C28.890625 6.2890625 28.890625 6.2890625 29 9 C27.26953125 11.38671875 27.26953125 11.38671875 24.8125 13.6875 C24.01457031 14.45449219 23.21664062 15.22148438 22.39453125 16.01171875 C18.83077115 18.97086049 15.75756069 20.1969728 11.25 21.125 C10.45078125 21.29257813 9.6515625 21.46015625 8.828125 21.6328125 C8.22484375 21.75398438 7.6215625 21.87515625 7 22 C8.65 23.98 10.3 25.96 12 28 C11.67 28.66 11.34 29.32 11 30 C9.65772182 28.73861805 8.32641323 27.46555441 7 26.1875 C6.2575 25.47980469 5.515 24.77210937 4.75 24.04296875 C3 22 3 22 3 19 C2.01 18.34 1.02 17.68 0 17 C-0.2208564 14.04935852 -0.28060989 11.31631769 -0.1875 8.375 C-0.17396484 7.57320313 -0.16042969 6.77140625 -0.14648438 5.9453125 C-0.11109051 3.96325622 -0.05728234 1.98154449 0 0 Z " fill="#D8BE8E" transform="translate(29,67)"/>
<path d="M0 0 C0.99 0.33 1.98 0.66 3 1 C3.18615302 11.3625183 2.60565429 21.66061606 2 32 C1.01 32.495 1.01 32.495 0 33 C0 25.74 0 18.48 0 11 C-1.20058579 13.40117159 -2.34578758 15.83303372 -3.375 18.3125 C-4.95859097 22.06439246 -6.92695987 25.49727702 -9 29 C-10 27 -10 27 -9.51855469 25.15576172 C-9.23915039 24.42115723 -8.95974609 23.68655273 -8.671875 22.9296875 C-8.36636719 22.115 -8.06085938 21.3003125 -7.74609375 20.4609375 C-7.41738281 19.60757813 -7.08867188 18.75421875 -6.75 17.875 C-6.43675781 17.04484375 -6.12351562 16.2146875 -5.80078125 15.359375 C-5.17702351 13.70809933 -4.55010763 12.0580129 -3.91992188 10.40917969 C-2.5973091 6.94539443 -1.29922382 3.47261675 0 0 Z " fill="#E2CDA0" transform="translate(91,94)"/>
<path d="M0 0 C0.66 0.99 1.32 1.98 2 3 C1.01 3.33 0.02 3.66 -1 4 C-1 4.66 -1 5.32 -1 6 C-2.29233607 7.37310707 -3.62437146 8.71034824 -5 10 C-4.0713916 10.01981934 -3.1427832 10.03963867 -2.18603516 10.06005859 C1.2545052 10.13808613 4.69459891 10.22477462 8.13476562 10.31738281 C9.62458889 10.35569998 11.11450554 10.39054808 12.60449219 10.421875 C14.74448048 10.46746729 16.88382436 10.52546874 19.0234375 10.5859375 C20.31169434 10.6173584 21.59995117 10.6487793 22.92724609 10.68115234 C26 11 26 11 28 13 C16.12 13 4.24 13 -8 13 C-8.33 12.01 -8.66 11.02 -9 10 C-7.63671875 8.02734375 -7.63671875 8.02734375 -5.6875 5.9375 C-5.05199219 5.24527344 -4.41648437 4.55304688 -3.76171875 3.83984375 C-2.52249988 2.5456706 -1.26699399 1.26699399 0 0 Z " fill="#DABE87" transform="translate(62,72)"/>
<path d="M0 0 C1.98 0.66 3.96 1.32 6 2 C5.92578125 3.734375 5.92578125 3.734375 5 6 C2.73506799 7.60566978 0.60973648 8.9354194 -1.8125 10.25 C-2.44220703 10.61351562 -3.07191406 10.97703125 -3.72070312 11.3515625 C-7.15229944 13.26720703 -8.98758634 14 -13 14 C-11.57390841 10.63797061 -9.85651485 8.76324421 -7.0625 6.4375 C-4.60267986 4.3730902 -2.23631078 2.30641457 0 0 Z " fill="#E0C996" transform="translate(135,46)"/>
<path d="M0 0 C0.98419922 -0.00386719 1.96839844 -0.00773437 2.98242188 -0.01171875 C3.93052734 -0.01042969 4.87863281 -0.00914063 5.85546875 -0.0078125 C6.71164795 -0.00668457 7.56782715 -0.00555664 8.44995117 -0.00439453 C10.70367429 0.11903972 12.65077039 0.49612185 14.8125 1.125 C14.8125 1.785 14.8125 2.445 14.8125 3.125 C3.9225 3.125 -6.9675 3.125 -18.1875 3.125 C-18.1875 2.465 -18.1875 1.805 -18.1875 1.125 C-12.10439737 0.05600289 -6.1671353 -0.02452141 0 0 Z " fill="#E6D1A6" transform="translate(75.1875,84.875)"/>
<path d="M0 0 C0.66 0.33 1.32 0.66 2 1 C2 4.3 2 7.6 2 11 C-6.75 12.125 -6.75 12.125 -9 11 C-7.8829081 7.98385187 -6.3874224 6.35491331 -3.9375 4.375 C-0.99175287 2.32880603 -0.99175287 2.32880603 0 0 Z " fill="#D0B9A1" transform="translate(25,53)"/>
<path d="M0 0 C0.33 0 0.66 0 1 0 C1 8.58 1 17.16 1 26 C0.34 26.33 -0.32 26.66 -1 27 C-3.125 26.0625 -3.125 26.0625 -5 25 C-4.38722388 22.03824877 -3.74627478 20.61941217 -2 18 C-1.72417958 15.4749636 -1.53633745 13.03120298 -1.4375 10.5 C-1.11757426 3.35272277 -1.11757426 3.35272277 0 0 Z " fill="#E6D4AB" transform="translate(93,132)"/>
<path d="M0 0 C0 5.09565385 -3.72127615 8.31434234 -7 12 C-9.50377017 14.40268628 -12.0702441 16.70233899 -14.6875 18.98046875 C-17.25000356 21.21833081 -19.63557418 23.55675998 -22 26 C-22.66 25.67 -23.32 25.34 -24 25 C-23.14277344 24.154375 -22.28554687 23.30875 -21.40234375 22.4375 C-15.87892205 16.96575188 -10.40601942 11.51861862 -5.3671875 5.58984375 C-3.67616069 3.62342114 -1.87038091 1.79556567 0 0 Z " fill="#DBC6A4" transform="translate(87,46)"/>
<path d="M0 0 C0.99 0 1.98 0 3 0 C3.66 0.99 4.32 1.98 5 3 C6.32 2.34 7.64 1.68 9 1 C7.68 2.65 6.36 4.3 5 6 C4.01 5.67 3.02 5.34 2 5 C0.63263488 8.00820327 -0.0591255 10.44344128 -0.5 13.75 C-0.665 14.8225 -0.83 15.895 -1 17 C-1.66 17.33 -2.32 17.66 -3 18 C-2.67 15.36 -2.34 12.72 -2 10 C-2.66 9.67 -3.32 9.34 -4 9 C-3.67 8.34 -3.34 7.68 -3 7 C-2.01 7 -1.02 7 0 7 C0 4.69 0 2.38 0 0 Z " fill="#D6C3A4" transform="translate(92,76)"/>
<path d="M0 0 C0.99 0.495 0.99 0.495 2 1 C3.56664678 10.13384633 3.11505409 19.75732164 3 29 C2.01 28.67 1.02 28.34 0 28 C0 27.01 0 26.02 0 25 C0.66 25 1.32 25 2 25 C1.855625 23.94941406 1.71125 22.89882812 1.5625 21.81640625 C0.58494506 14.49781309 -0.26432715 7.40116009 0 0 Z " fill="#F2E8D4" transform="translate(93,47)"/>
<path d="M0 0 C0.33 0 0.66 0 1 0 C1.22174933 1.45635371 1.42698698 2.91522956 1.625 4.375 C1.74101563 5.18710938 1.85703125 5.99921875 1.9765625 6.8359375 C1.98429687 7.55007812 1.99203125 8.26421875 2 9 C1.34 9.66 0.68 10.32 0 11 C-0.66 10.67 -1.32 10.34 -2 10 C-1.505 10.45375 -1.01 10.9075 -0.5 11.375 C1 13 1 13 1 15 C-1.475 14.01 -1.475 14.01 -4 13 C-3.52140759 11.39566191 -3.04210442 9.79153584 -2.5625 8.1875 C-2.29566406 7.29417969 -2.02882813 6.40085938 -1.75390625 5.48046875 C-1.19612127 3.64526945 -0.60655425 1.81966274 0 0 Z " fill="#DFCA9E" transform="translate(76,135)"/>
<path d="M0 0 C0.66 0 1.32 0 2 0 C1.39009109 3.55780196 0.4216319 6.6828589 -1 10 C-4.36720387 8.60667426 -5.9859524 7.0210714 -8 4 C-5.03 4.495 -5.03 4.495 -2 5 C-2 4.34 -2 3.68 -2 3 C-1.34 3 -0.68 3 0 3 C0 2.01 0 1.02 0 0 Z " fill="#DCC69D" transform="translate(77,123)"/>
<path d="M0 0 C0.33 0.66 0.66 1.32 1 2 C1.99 2.33 2.98 2.66 4 3 C4 4.32 4 5.64 4 7 C4.99 7.33 5.98 7.66 7 8 C8.6875 10.0625 8.6875 10.0625 10 12 C9.67 12.66 9.34 13.32 9 14 C5.37 10.37 1.74 6.74 -2 3 C-1.34 2.01 -0.68 1.02 0 0 Z " fill="#E1CA96" transform="translate(44,97)"/>
<path d="M0 0 C5.44693314 -0.09688221 10.63904667 -0.12862175 16 1 C15.67 1.66 15.34 2.32 15 3 C9.72 3 4.44 3 -1 3 C-0.67 2.01 -0.34 1.02 0 0 Z " fill="#E5D2AB" transform="translate(39,85)"/>
<path d="M0 0 C3.87302138 1.14430177 7.00263439 2.23320098 10 5 C10 5.66 10 6.32 10 7 C5.94718288 5.77472971 2.55639236 4.30119506 -1 2 C-0.67 1.34 -0.34 0.68 0 0 Z " fill="#D9C89B" transform="translate(78,149)"/>
<path d="M0 0 C-2 1.5 -2 1.5 -4 3 C-4.680625 3.5775 -5.36125 4.155 -6.0625 4.75 C-6.701875 5.1625 -7.34125 5.575 -8 6 C-8.99 5.67 -9.98 5.34 -11 5 C-8.45499142 -0.63537615 -5.97208347 -0.11059414 0 0 Z " fill="#D0BBA7" transform="translate(133,55)"/>
<path d="M0 0 C0.04254356 1.99954746 0.04080783 4.00041636 0 6 C-1 7 -1 7 -3.5625 7.0625 C-4.7690625 7.0315625 -4.7690625 7.0315625 -6 7 C-6 6.01 -6 5.02 -6 4 C-1.54285714 0 -1.54285714 0 0 0 Z " fill="#E7CE92" transform="translate(26,56)"/>
<path d="M0 0 C5.28 0 10.56 0 16 0 C16 0.99 16 1.98 16 3 C10.36718401 3.2396943 5.45461169 2.38529821 0 1 C0 0.67 0 0.34 0 0 Z " fill="#D3C197" transform="translate(122,40)"/>
<path d="M0 0 C5.41314667 1.80438222 8.59843307 6.59056139 12 11 C9 11 9 11 7.24609375 9.609375 C6.64925781 8.99578125 6.05242187 8.3821875 5.4375 7.75 C4.83808594 7.14671875 4.23867188 6.5434375 3.62109375 5.921875 C2.02427887 4.02878362 1.00261455 2.25463571 0 0 Z " fill="#D9C59F" transform="translate(58,115)"/>
<path d="M0 0 C0.66 0.99 1.32 1.98 2 3 C1.01 3.33 0.02 3.66 -1 4 C-1 4.66 -1 5.32 -1 6 C-2.875 8.125 -2.875 8.125 -5 10 C-5.66 10 -6.32 10 -7 10 C-5.6062718 5.56541027 -3.39417765 3.12621626 0 0 Z " fill="#DEC793" transform="translate(62,72)"/>
<path d="M0 0 C0.66 0 1.32 0 2 0 C2 0.66 2 1.32 2 2 C2.99 2 3.98 2 5 2 C5 2.99 5 3.98 5 5 C3.68 5.33 2.36 5.66 1 6 C0.67 5.34 0.34 4.68 0 4 C-0.99 4 -1.98 4 -3 4 C-1.625 2 -1.625 2 0 0 Z " fill="#DEBA98" transform="translate(91,41)"/>
<path d="M0 0 C1.15518918 0.90484792 2.29885406 1.8244206 3.4375 2.75 C4.07558594 3.26046875 4.71367188 3.7709375 5.37109375 4.296875 C7.18810554 6.19667629 7.60423197 7.43586908 8 10 C6.68 9.34 5.36 8.68 4 8 C4 7.01 4 6.02 4 5 C3.01 4.67 2.02 4.34 1 4 C0.3125 1.9375 0.3125 1.9375 0 0 Z " fill="#DCC39E" transform="translate(44,58)"/>
<path d="M0 0 C-1.51671964 4.55015893 -5.16891053 6.50057264 -9 9 C-7.45665977 5.21180126 -4.44676575 0 0 0 Z " fill="#DABF96" transform="translate(135,44)"/>
<path d="M0 0 C0.33 0.66 0.66 1.32 1 2 C1.99 2.33 2.98 2.66 4 3 C5.84499398 4.87617698 7.3683599 6.92737609 9 9 C8.67 9.66 8.34 10.32 8 11 C6.65772182 9.73861805 5.32641323 8.46555441 4 7.1875 C3.2575 6.47980469 2.515 5.77210937 1.75 5.04296875 C0 3 0 3 0 0 Z " fill="#D7C2A3" transform="translate(32,86)"/>
<path d="M0 0 C0.66 0.33 1.32 0.66 2 1 C-0.97 3.97 -3.94 6.94 -7 10 C-7 7 -7 7 -4.625 4.4375 C-3.75875 3.633125 -2.8925 2.82875 -2 2 C-1.34 1.34 -0.68 0.68 0 0 Z " fill="#D6BE97" transform="translate(124,53)"/>
<path d="M0 0 C1.98 0.66 3.96 1.32 6 2 C5.67 2.99 5.34 3.98 5 5 C5 4.34 5 3.68 5 3 C2.36 3.33 -0.28 3.66 -3 4 C-2.01 2.68 -1.02 1.36 0 0 Z " fill="#CEBD9F" transform="translate(135,46)"/>
<path d="M0 0 C0.99 0.33 1.98 0.66 3 1 C2.67 3.64 2.34 6.28 2 9 C1.67 9 1.34 9 1 9 C1 7.35 1 5.7 1 4 C0.34 4 -0.32 4 -1 4 C-0.67 2.68 -0.34 1.36 0 0 Z " fill="#CBBC9A" transform="translate(91,94)"/>
<path d="M0 0 C3.91402949 1.26941497 5.79072873 2.51167694 8 6 C7.67 6.66 7.34 7.32 7 8 C5.83035398 6.8572081 4.66435444 5.71068285 3.5 4.5625 C2.8503125 3.92441406 2.200625 3.28632812 1.53125 2.62890625 C0 1 0 1 0 0 Z " fill="#D5C2A0" transform="translate(46,103)"/>
</svg>
